<?xml version="1.0" encoding="utf-8"?>
<!-- Generator: Adobe Illustrator 22.1.0, SVG Export Plug-In . SVG Version: 6.00 Build 0)  -->
<svg version="1.1" id="图层_1" xmlns="http://www.w3.org/2000/svg" xmlns:xlink="http://www.w3.org/1999/xlink" x="0px" y="0px"
	 viewBox="0 0 200.2 200" style="enable-background:new 0 0 200.2 200;" xml:space="preserve">
<style type="text/css">
	.st0{fill:#333333;}
</style>
<path class="st0" d="M57.2,175.2H31.7c2.6-35.4,32.2-63.5,68.3-63.5c8.5,0,16.6,1.5,24.1,4.4l7.7-7.7c-0.4-0.2-0.8-0.4-1.2-0.5
	c-2.2-0.9-4.5-1.8-6.7-2.5c3.6-2.1,7-4.7,10-7.7c9-9,14-21,14-33.8s-5-24.8-14-33.8c-9-9-21-14-33.8-14s-24.8,5-33.8,14
	s-14,21-14,33.8s5,24.8,14,33.8c3,3,6.4,5.6,10,7.7c-2.3,0.7-4.5,1.6-6.7,2.5c-9.3,4-17.7,9.6-24.9,16.8
	c-7.2,7.2-12.9,15.6-16.8,24.9c-4.1,9.7-6.2,19.9-6.2,30.5c0,2.8,2.2,5,5,5h30.6c2.8,0,5-2.2,5-5S59.9,175.2,57.2,175.2z M62.2,63.9
	c0-20.9,17-37.8,37.8-37.8s37.8,17,37.8,37.8s-17,37.8-37.8,37.8S62.2,84.8,62.2,63.9z M172.3,149.7c-3.6-8.4-8.5-16.1-14.7-22.8
	l-7.1,7.1c10.1,11,16.7,25.4,17.8,41.2h-25.4c-2.8,0-5,2.2-5,5s2.2,5,5,5h30.6c2.8,0,5-2.2,5-5C178.4,169.6,176.4,159.4,172.3,149.7
	z M154.6,107.6c-2-2-5.1-2-7.1,0l-47.7,47.7l-20.9-20.9c-2-2-5.1-2-7.1,0c-2,2-2,5.1,0,7.1l24.4,24.4c1,1,2.3,1.5,3.5,1.5
	c1.3,0,2.6-0.5,3.5-1.5l51.2-51.2C156.6,112.7,156.6,109.6,154.6,107.6z"/>
</svg>
