<?xml version="1.0" encoding="utf-8"?>
<!-- Generator: Adobe Illustrator 22.1.0, SVG Export Plug-In . SVG Version: 6.00 Build 0)  -->
<svg version="1.1" id="图层_1" xmlns="http://www.w3.org/2000/svg" xmlns:xlink="http://www.w3.org/1999/xlink" x="0px" y="0px"
	 viewBox="0 0 200 200" style="enable-background:new 0 0 200 200;" xml:space="preserve">
<style type="text/css">
	.st0{fill:#333333;}
</style>
<path class="st0" d="M100,90.6c17.2,0,31.3-14.1,31.3-31.3S117.2,28.1,100,28.1S68.8,42.2,68.8,59.4S82.8,90.6,100,90.6z
	 M96.3,120.6c-1.6-1.3-2.5-2.8-2.5-5c0-3.4,2.8-6.3,6.3-6.3c3.4,0,6.3,2.8,6.3,6.3c0,2.2-0.9,3.8-2.5,5l8.4,29.7
	c0.6,2.2,0,4.4-1.6,5.9l-8.4,8.4c-1.3,1.3-3.1,1.3-4.4,0l-8.4-8.4c-1.6-1.6-2.2-3.8-1.6-5.9C87.8,150.3,96.3,120.6,96.3,120.6z
	 M72.8,93.8c-10-8.1-16.6-20.3-16.6-34.4c0-24.1,19.7-43.8,43.8-43.8s43.8,19.7,43.8,43.8c0,13.8-6.6,26.3-16.6,34.4
	c31.3,9.1,54.1,37.8,54.1,71.9c0,10.3-8.4,18.8-18.8,18.8h-125c-10.3,0-18.8-8.4-18.8-18.8C18.8,131.6,41.6,102.8,72.8,93.8z
	 M162.5,171.9c3.4,0,6.3-2.8,6.3-6.3c0-34.4-28.1-62.5-62.5-62.5H93.8c-34.4,0-62.5,28.1-62.5,62.5c0,3.4,2.8,6.3,6.3,6.3H162.5z"/>
</svg>
