<?xml version="1.0" encoding="utf-8"?>
<!-- Generator: Adobe Illustrator 22.1.0, SVG Export Plug-In . SVG Version: 6.00 Build 0)  -->
<svg version="1.1" id="图层_1" xmlns="http://www.w3.org/2000/svg" xmlns:xlink="http://www.w3.org/1999/xlink" x="0px" y="0px"
	 viewBox="0 0 202.1 200" style="enable-background:new 0 0 202.1 200;" xml:space="preserve">
<style type="text/css">
	.st0{fill:#333333;}
</style>
<path class="st0" d="M198.9,109.7c0-3.6-2.9-6.5-6.5-6.5h0c-3.6,0-6.5,2.9-6.5,6.5l0.1,65.3c0,1.3-0.5,2.5-1.4,3.4
	c-0.9,0.9-2.1,1.4-3.3,1.4c0,0,0,0-0.1,0L19,180.1c-1.3,0-2.5-0.5-3.4-1.4c-0.9-0.9-1.4-2.1-1.4-3.4L13.9,26.6
	c0-2.6,2.1-4.8,4.8-4.8c0,0,0,0,0.1,0l79.5-0.1c3.6,0,6.5-2.9,6.5-6.5l0,0c0-3.6-2.9-6.5-6.5-6.5L18.7,8.8c-9.8,0-17.8,8-17.8,17.8
	l0.2,148.7c0,4.7,1.9,9.2,5.2,12.6s7.8,5.2,12.6,5.2l162.2-0.2c0.1,0,0.1,0,0.2,0c4.7-0.1,9.1-1.9,12.4-5.2
	c3.4-3.4,5.2-7.8,5.2-12.6L198.9,109.7z"/>
<path class="st0" d="M69.1,127.3l1.3,1.3c2.4,2.4,6.3,2.4,8.7,0L192.3,15c2.4-2.4,2.4-6.3,0-8.7L191,5c-2.4-2.4-6.3-2.4-8.7,0
	L69.1,118.6C66.7,121,66.7,124.9,69.1,127.3z"/>
</svg>
