<?xml version="1.0" encoding="utf-8"?>
<!-- Generator: Adobe Illustrator 22.1.0, SVG Export Plug-In . SVG Version: 6.00 Build 0)  -->
<svg version="1.1" id="图层_1" xmlns="http://www.w3.org/2000/svg" xmlns:xlink="http://www.w3.org/1999/xlink" x="0px" y="0px"
	 viewBox="0 0 200 200" style="enable-background:new 0 0 200 200;" xml:space="preserve">
<style type="text/css">
	.st0{fill:#333333;}
</style>
<path class="st0" d="M25,162.5c0,3.3,1,4,4,2.7l3-1.2c14.8-5.9,37.8-5.9,52.6,0l18.5,7.4h-6.2l18.5-7.4c14.8-5.9,37.8-5.9,52.6,0
	l3,1.2c3.1,1.2,4,0.6,4-2.7V50c0-5.8-4.8-13-10.2-15.1l-3-1.2c-10.8-4.3-29.4-4.3-40.2,0l-18.5,7.4l-3.1,1.2l-3.1-1.2l-18.5-7.4
	c-10.8-4.3-29.4-4.3-40.2,0l-3,1.2C29.8,37,25,44.2,25,50V162.5z M32.1,27.1l3-1.2c12.8-5.1,33.6-5.1,46.4,0l18.5,7.4l18.5-7.4
	c12.8-5.1,33.6-5.1,46.4,0l3,1.2c8.5,3.4,15.5,13.6,15.5,22.8v112.5c0,9.2-6.9,13.9-15.5,10.5l-3-1.2c-12.8-5.1-33.6-5.1-46.4,0
	l-18.5,7.4l-18.5-7.4c-12.8-5.1-33.6-5.1-46.4,0l-3,1.2c-8.5,3.4-15.5-1.3-15.5-10.5V50C16.7,40.8,23.6,30.6,32.1,27.1z M95.8,41.7
	c0-2.3,1.9-4.2,4.2-4.2c2.3,0,4.2,1.9,4.2,4.2c0,0,0,0,0,0v100c0,2.3-1.9,4.2-4.2,4.2s-4.2-1.9-4.2-4.2c0,0,0,0,0,0V41.7z"/>
</svg>
