<?xml version="1.0" standalone="no"?><!DOCTYPE svg PUBLIC "-//W3C//DTD SVG 1.1//EN" "http://www.w3.org/Graphics/SVG/1.1/DTD/svg11.dtd"><svg t="1560224869968" class="icon" style="" viewBox="0 0 1024 1024" version="1.1" xmlns="http://www.w3.org/2000/svg" p-id="12899" xmlns:xlink="http://www.w3.org/1999/xlink" width="200" height="200"><defs><style type="text/css"></style></defs><path d="M840.841 210.425L555.086 496.18c-8.405 8.405-20.27 8.405-28.674 0-8.405-8.405-8.405-20.27 0-28.674L812.167 181.75c8.404-8.405 20.27-8.405 28.674 0 7.91 8.404 7.91 20.764 0 28.674zM663.356 624.719H377.601c-12.36 0-20.27-8.405-20.27-20.27 0-12.36 8.405-20.27 20.27-20.27h285.755c12.36 0 20.27 8.405 20.27 20.27 0 12.36-8.405 20.27-20.27 20.27z m0 101.843H377.601c-12.36 0-20.27-8.405-20.27-20.27 0-12.36 8.405-20.27 20.27-20.27h285.755c12.36 0 20.27 8.405 20.27 20.27 0 12.36-8.405 20.27-20.27 20.27zM254.994 237.121v548.768c0 12.36 8.405 20.27 20.27 20.27h487.463c12.36 0 20.27-8.405 20.27-20.27v-385.62h41.033V806.16c0 22.247-18.292 41.034-41.033 41.034H254.994c-22.247 0-41.034-18.292-41.034-41.034V216.852c0-22.247 18.292-41.034 41.034-41.034h365.35v41.034H273.286c-7.91 0-18.292 9.888-18.292 20.27z m0 0" p-id="12900"></path></svg>