<?xml version="1.0" encoding="utf-8"?>
<!-- Generator: Adobe Illustrator 22.1.0, SVG Export Plug-In . SVG Version: 6.00 Build 0)  -->
<svg version="1.1" id="图层_1" xmlns="http://www.w3.org/2000/svg" xmlns:xlink="http://www.w3.org/1999/xlink" x="0px" y="0px"
	 viewBox="0 0 200 200" style="enable-background:new 0 0 200 200;" xml:space="preserve">
<style type="text/css">
	.st0{fill:#333333;}
</style>
<path class="st0" d="M32.8,200C14.7,200,0,184.4,0,165.2V34.8C0,15.6,15.7,0,35,0h115.7c19.2,0,34.8,15.6,34.9,34.8v7.4l0.5,0.4
	c8.7,6.6,14,17.2,14,28.4v94.2c0,19.2-14.7,34.8-32.8,34.8H32.8z M35,11.8c-12.7,0-23.1,10.2-23.2,23v130.3c0,12.7,9.4,23,20.9,23
	h134.5c11.5,0,20.9-10.3,20.9-23V71c0-12.7-9.4-23-20.9-23H49.3c-3.3,0-5.9-2.7-5.9-5.9c0-3.3,2.7-5.9,5.9-5.9h117.9
	c1.6,0,3.2,0.3,4.9,0.5l1.5,0.2l0-1.5v-0.6c0-12.7-10.3-23-23-23C150.7,11.8,35,11.8,35,11.8z"/>
<path class="st0" d="M90.5,161.9c-3.3,0-6-2.6-6-5.7v-8.3H53.6c-3.3,0-6-2.6-6-5.7c0-3.1,2.7-5.7,6-5.7h30.8V120H53.6
	c-3.3,0-6-2.6-6-5.7s2.7-5.7,6-5.7h30.8v-7.3l-0.9-0.3c-2.2-0.7-4.2-1.8-6-3.2l-27.7-21c-2.5-1.8-3-5.3-1.2-7.8
	c0.1-0.1,0.1-0.2,0.2-0.3c1.2-1.4,2.9-2.2,4.7-2.1c1.4,0,2.7,0.4,3.8,1.2l27.7,21c1.6,1.2,3.5,1.8,5.4,1.8c1.9,0,3.8-0.6,5.4-1.8
	l27.7-21c2.6-1.9,6.3-1.6,8.5,0.9c2,2.3,1.7,5.8-0.6,7.8c-0.1,0.1-0.2,0.2-0.3,0.2l-27.6,21c-1.8,1.3-3.8,2.4-6,3.1l-0.9,0.3v7.3
	h30.8c3.3,0,6,2.6,6,5.7c0,3.1-2.7,5.7-6,5.7H96.5v16.5h30.8c3.3,0,6,2.6,6,5.7c0,3.2-2.7,5.7-6,5.7H96.5v8.3
	C96.5,159.3,93.8,161.9,90.5,161.9z"/>
</svg>
