<?xml version="1.0" encoding="utf-8"?>
<!-- Generator: Adobe Illustrator 22.1.0, SVG Export Plug-In . SVG Version: 6.00 Build 0)  -->
<svg version="1.1" id="图层_1" xmlns="http://www.w3.org/2000/svg" xmlns:xlink="http://www.w3.org/1999/xlink" x="0px" y="0px"
	 viewBox="0 0 200 200" style="enable-background:new 0 0 200 200;" xml:space="preserve">
<style type="text/css">
	.st0{fill:#333333;}
</style>
<path class="st0" d="M100,100c-24.5,0-44.9-17.7-49.2-40.9c2.9-2,4.7-5.3,4.7-9.1c0-6.1-5-11.1-11.1-11.1s-11.1,5-11.1,11.1
	c0,4.4,2.6,8.3,6.4,10.1c4.8,28.9,30,51.1,60.3,51.1c30.3,0,55.5-22.1,60.3-51.1c3.8-1.8,6.4-5.6,6.4-10.1c0-6.1-5-11.1-11.1-11.1
	s-11.1,5-11.1,11.1c0,3.8,1.9,7.1,4.7,9.1C144.9,82.3,124.5,100,100,100L100,100z M177.8,0h-5.5c0,0,0,0,0,0h-38.9c0,0,0,0,0,0h-0.7
	c0,0,0,0,0,0c-2.7,0.3-4.9,2.7-4.9,5.5s2.1,5.2,4.9,5.5c0,0,0,0,0,0h45.1c6.1,0,11.1,5,11.1,11.1v155.6c0,6.1-5,11.1-11.1,11.1
	l-155.6,0c-6.1,0-11.1-5-11.1-11.1V22.2c0-6.1,5-11.1,11.1-11.1h39.6c0,0,0,0,0,0c2.7-0.3,4.9-2.7,4.9-5.5S64.5,0.4,61.8,0
	c0,0,0,0,0,0h-0.7c0,0,0,0,0,0L22.2,0c0,0,0,0,0,0C10,0,0,10,0,22.2v155.6C0,190,10,200,22.2,200h155.6c12.3,0,22.2-10,22.2-22.2
	V22.2C200,10,190,0,177.8,0L177.8,0z"/>
</svg>
