<?xml version="1.0" encoding="utf-8"?>
<!-- Generator: Adobe Illustrator 22.1.0, SVG Export Plug-In . SVG Version: 6.00 Build 0)  -->
<svg version="1.1" id="图层_1" xmlns="http://www.w3.org/2000/svg" xmlns:xlink="http://www.w3.org/1999/xlink" x="0px" y="0px"
	 viewBox="0 0 217.6 200" style="enable-background:new 0 0 217.6 200;" xml:space="preserve">
<style type="text/css">
	.st0{fill:#333333;}
</style>
<path class="st0" d="M194.1,86.5v101.8c0,6.5-5.3,11.8-11.8,11.8h-45.3c-6.5,0-11.8-5.3-11.8-11.8V141H90.8v47.2
	c0,6.5-5.3,11.8-11.8,11.8H35.3c-6.5,0-11.8-5.3-11.8-11.8V87L9.7,98.6c-2.5,2.1-6.2,1.8-8.3-0.7c-2.1-2.5-1.8-6.2,0.7-8.3
	L107.3,1.4c2.2-1.9,5.5-1.8,7.7,0.1l100.7,88.2c2.4,2.2,2.6,5.9,0.4,8.3c-2.1,2.4-5.8,2.6-8.2,0.5L194.1,86.5z M182.4,76.2L111,13.6
	L35.3,77.1v111.1h43.8V141c0-6.5,5.3-11.8,11.8-11.8h34.5c6.5,0,11.8,5.3,11.8,11.8v47.2h45.3V76.5L182.4,76.2z"/>
</svg>
