<?xml version="1.0" standalone="no"?><!DOCTYPE svg PUBLIC "-//W3C//DTD SVG 1.1//EN" "http://www.w3.org/Graphics/SVG/1.1/DTD/svg11.dtd"><svg t="1560224534522" class="icon" style="" viewBox="0 0 1024 1024" version="1.1" xmlns="http://www.w3.org/2000/svg" p-id="4703" xmlns:xlink="http://www.w3.org/1999/xlink" width="200" height="200"><defs><style type="text/css"></style></defs><path d="M950.731788 803.307645c-24.720008 59.771315-63.658855 62.408375-63.658855 62.408376H163.877883a96.600105 96.600105 0 0 1-38.697347-8.048304 98.983385 98.983385 0 0 1-31.57923-21.888519 102.030791 102.030791 0 0 1-21.279652-32.471553 104.185874 104.185874 0 0 1-7.832386-39.806611V252.639974a104.187921 104.187921 0 0 1 7.832386-39.805588 102.051257 102.051257 0 0 1 21.279652-32.473599 99.076506 99.076506 0 0 1 31.57923-21.888519 96.582709 96.582709 0 0 1 38.697347-8.04728h695.297676a95.264691 95.264691 0 0 1 38.625716 8.04728 102.44523 102.44523 0 0 1 31.828916 21.888519 104.635105 104.635105 0 0 1 21.101597 32.473599 100.997252 100.997252 0 0 1 7.869225 39.805588v510.860037a101.003392 101.003392 0 0 1-7.869225 39.807634z m-41.844014-550.774095c-2.248204-32.481785-25.740244-59.546188-57.580416-66.344011h-679.526481c-35.69906 7.950066-63.579037 35.830043-71.529104 71.529104v500.703723c7.950066 35.69906 35.830043 63.579037 71.529104 71.52808h715.291032s21.814842-23.410176 21.814842-66.451458V252.53355zM672.485623 579.600631c-71.045079 0.064468-135.312802 42.180681-163.731039 107.293655h-38.160111a215.262692 215.262692 0 0 1 127.107933-128.751363c-67.352991-41.302685-88.473007-129.384789-47.173393-196.739826 41.302685-67.352991 129.385812-88.473007 196.738803-47.171346C814.622854 355.534436 835.741847 443.61654 794.440186 510.970554a143.07151 143.07151 0 0 1-47.17237 47.172369 214.588333 214.588333 0 0 1 126.929878 128.751363h-37.912471c-28.427446-65.137533-92.728938-107.256816-163.7996-107.293655z m111.262036-143.05923c0.11461-61.447491-49.604768-111.356181-111.055328-111.471814-61.447491-0.113587-111.355157 49.606815-111.469768 111.056352-0.103354 53.92619 38.482453 100.160187 91.556229 109.713774 6.581905-0.64673 12.945847-2.004657 19.706831-2.004657 6.757914 0 13.123902 1.357927 19.706831 2.004657 52.939723-9.485025 91.498924-55.512315 91.555205-109.298312z m-576.201207-35.763528v-35.764552h251.353678l-1.001817 35.764552h-250.351861z m250.351861 107.292631h-250.351861v-35.764551h250.350838v35.764551z m-71.529103 107.293655h-178.822758v-35.763528h178.822758v35.763528z" p-id="4704"></path></svg>