<?xml version="1.0" standalone="no"?><!DOCTYPE svg PUBLIC "-//W3C//DTD SVG 1.1//EN" "http://www.w3.org/Graphics/SVG/1.1/DTD/svg11.dtd">
<svg t="1560225030305" class="icon" style="" viewBox="0 0 1024 1024" version="1.1" 
    xmlns="http://www.w3.org/2000/svg" p-id="15996" 
    xmlns:xlink="http://www.w3.org/1999/xlink" width="200" height="200">
    <defs>
        <style type="text/css"></style>
    </defs>
    <path d="M682.1354 957.931259c-159.452595 0-288.707424-129.254829-288.707424-288.707424 0-159.451572 129.254829-288.706401 288.707424-288.706401S970.840778 509.772262 970.840778 669.224858C970.840778 828.677453 841.587995 957.931259 682.1354 957.931259zM682.1354 438.259532c-127.551024 0-230.966349 103.416348-230.966349 230.965326 0 127.551024 103.415324 230.966349 230.966349 230.966349S913.099702 796.774859 913.099702 669.224858C913.099702 541.674856 809.685401 438.259532 682.1354 438.259532zM695.443497 811.456233c-0.042979 0.058328-0.12996 0.086981-0.188288 0.157589-1.038656 1.559519-1.718131 3.294023-3.088338 4.66423-11.274788 11.272741-29.550013 11.272741-40.838104 0l-102.071723-102.071723c-11.273764-11.274788-11.273764-29.54899 0-40.824801 11.273764-11.272741 29.547966-11.272741 40.83708 0l76.753081 76.753081 123.45166-188.293457c9.829879-12.559037 27.974122-14.768355 40.533159-4.937452 12.558014 9.830903 14.768355 27.977191 4.936429 40.533159L695.443497 811.456233zM761.528612 201.880917c0-21.927405-17.768689-39.697117-39.696094-39.697117l-15.519462 0c-3.059686 1.096984-6.306636 1.804089-9.742898 1.804089-15.935947 0-28.870538-12.933567-28.870538-28.870538 0-15.935947 12.93459-28.869514 28.870538-28.869514 3.436262 0 6.683213 0.707105 9.742898 1.804089l29.953196 0c43.85481 0 79.394235 35.539424 79.394235 79.394235l0 162.066119c-17.33583-7.246031-35.496445-12.861936-54.131875-17.235546L761.528612 201.880917zM595.522764 192.858426c-15.935947 0-28.871561-12.933567-28.871561-28.870538L566.651202 106.246813c0-15.936971 12.935614-28.870538 28.871561-28.870538 15.936971 0 28.870538 12.933567 28.870538 28.870538l0 57.741076C624.393301 179.924859 611.459734 192.858426 595.522764 192.858426zM436.734294 192.858426c-15.936971 0-28.870538-12.933567-28.870538-28.870538L407.863756 106.246813c0-15.936971 12.933567-28.870538 28.870538-28.870538 15.935947 0 28.870538 12.933567 28.870538 28.870538l0 57.741076C465.604832 179.924859 452.670242 192.858426 436.734294 192.858426zM140.809491 862.297155c-43.853787 0-79.393211-35.538401-79.393211-79.394235L61.41628 187.44616c0-43.85481 35.539424-79.394235 79.393211-79.394235l26.345018 0c3.060709-1.096984 6.308683-1.804089 9.744945-1.804089 15.934924 0 28.869514 12.933567 28.869514 28.869514 0 15.936971-12.93459 28.870538-28.869514 28.870538-3.436262 0-6.684236-0.707105-9.744945-1.804089l-11.909238 0c-21.926382 0-39.696094 17.769712-39.696094 39.697117l0 566.586223c0 21.927405 17.769712 39.698141 39.696094 39.698141l209.630415 0c8.314363 18.96698 18.144242 37.127595 29.591969 54.131875L140.809491 862.297155zM277.944801 192.858426c-15.935947 0-28.869514-12.933567-28.869514-28.870538L249.075287 106.246813c0-15.936971 12.933567-28.870538 28.869514-28.870538 15.937994 0 28.871561 12.933567 28.871561 28.870538l0 57.741076C306.816363 179.924859 293.882795 192.858426 277.944801 192.858426z" p-id="15997"></path>
</svg>