<?xml version="1.0" encoding="utf-8"?>
<!-- Generator: Adobe Illustrator 22.1.0, SVG Export Plug-In . SVG Version: 6.00 Build 0)  -->
<svg version="1.1" id="图层_1" xmlns="http://www.w3.org/2000/svg" xmlns:xlink="http://www.w3.org/1999/xlink" x="0px" y="0px"
	 viewBox="0 0 200 200" style="enable-background:new 0 0 200 200;" xml:space="preserve">
<style type="text/css">
	.st0{fill:#333333;}
</style>
<path class="st0" d="M152.7,67.1H47.3c-2.3,0-4.2,1.9-4.2,4.2c0,2.3,1.9,4.2,4.2,4.2h105.4c2.3,0,4.2-1.9,4.2-4.2
	C156.9,69,155,67.1,152.7,67.1z"/>
<path class="st0" d="M47.3,104.2h86.2c2.3,0,4.2-1.9,4.2-4.2c0-2.3-1.9-4.2-4.2-4.2H47.3c-2.3,0-4.2,1.9-4.2,4.2
	S45,104.2,47.3,104.2z"/>
<path class="st0" d="M152.7,124.6H47.3c-2.3,0-4.2,1.9-4.2,4.2c0,2.3,1.9,4.2,4.2,4.2h105.4c2.3,0,4.2-1.9,4.2-4.2
	C156.9,126.4,155,124.6,152.7,124.6z"/>
<path class="st0" d="M133.5,153.3H47.3c-2.3,0-4.2,1.9-4.2,4.2c0,2.3,1.9,4.2,4.2,4.2h86.2c2.3,0,4.2-1.9,4.2-4.2
	C137.7,155.2,135.9,153.3,133.5,153.3z"/>
<path class="st0" d="M152.7,24h-6.8c-2.5-5.6-8.2-9.6-14.7-9.6h-13.1C116.2,6.2,108.8,0,100,0c-8.8,0-16.2,6.2-18.1,14.4H68.9
	c-6.6,0-12.2,3.9-14.7,9.6h-4.6c-18.7,0-35.1,15.4-35.1,32.9l0,110.2c0,17.5,16.4,32.9,35.1,32.9h103.2c18.1,0,32.9-14.8,32.9-32.9
	l0-110.2C185.6,38.7,170.9,24,152.7,24z M68.9,22.7h16.8c2.3,0,4.2-1.9,4.2-4.2c0-5.6,4.6-10.2,10.2-10.2c5.6,0,10.2,4.6,10.2,10.2
	c0,2.3,1.9,4.2,4.2,4.2h16.8c4.3,0,7.8,3.5,7.8,7.8c0,4.3-3.5,7.8-7.8,7.8H68.8c-4.3,0-7.8-3.5-7.8-7.8C61,26.2,64.6,22.7,68.9,22.7
	z M177.3,167.1c0,13.6-11,24.6-24.6,24.6H49.5c-14.3,0-26.8-11.5-26.8-24.6l0-110.2c0-13.1,12.5-24.6,26.8-24.6h3.4
	c0.9,8.1,7.7,14.4,16,14.4h62.3c8.3,0,15.1-6.3,16-14.4h5.6c13.5,0,24.6,11,24.6,24.6L177.3,167.1L177.3,167.1z"/>
</svg>
