<?xml version="1.0" encoding="utf-8"?>
<!-- Generator: Adobe Illustrator 22.1.0, SVG Export Plug-In . SVG Version: 6.00 Build 0)  -->
<svg version="1.1" id="图层_1" xmlns="http://www.w3.org/2000/svg" xmlns:xlink="http://www.w3.org/1999/xlink" x="0px" y="0px"
	 viewBox="0 0 200 200" style="enable-background:new 0 0 200 200;" xml:space="preserve">
<style type="text/css">
	.st0{fill:#333333;}
</style>
<path class="st0" d="M158.4,185.6H41.5c-6.5,0-11.7-5.3-11.7-11.7v-140c0-6.5,5.3-11.7,11.7-11.7h28.3c3,0,5.5,2.5,5.5,5.5v8.8
	c0,0.4,0.3,0.7,0.7,0.7H124c0.3,0,0.7-0.3,0.7-0.7v-8.8c0-3,2.5-5.5,5.5-5.5h28.3c6.4,0,11.7,5.3,11.7,11.7v140.1
	C170.1,180.4,164.9,185.6,158.4,185.6L158.4,185.6z M41.5,33.1c-0.4,0-0.7,0.3-0.7,0.7v140.1c0,0.3,0.3,0.7,0.7,0.7h116.9
	c0.3,0,0.7-0.3,0.7-0.7V33.8c0-0.4-0.3-0.7-0.7-0.7h-22.8v3.3c0,6.5-5.3,11.7-11.7,11.7H76.1c-6.5,0-11.7-5.3-11.7-11.7v-3.3
	C64.4,33.2,41.5,33.2,41.5,33.1z"/>
<path class="st0" d="M138.6,78.4H61.4c-3,0-5.5-2.4-5.5-5.5c0-3,2.5-5.5,5.5-5.5h77.2c3.1,0,5.5,2.5,5.5,5.5
	C144.1,76,141.6,78.4,138.6,78.4L138.6,78.4z M138.6,109.3H61.4c-3,0-5.5-2.4-5.5-5.5s2.5-5.5,5.5-5.5h77.2c3.1,0,5.5,2.4,5.5,5.5
	S141.6,109.3,138.6,109.3L138.6,109.3z M138.6,140.3H61.4c-3,0-5.5-2.4-5.5-5.5c0-3.1,2.5-5.5,5.5-5.5h77.2c3.1,0,5.5,2.4,5.5,5.5
	C144.1,137.8,141.6,140.3,138.6,140.3L138.6,140.3z M110.3,25.5H89.7c-3,0-5.5-2.5-5.5-5.5s2.5-5.5,5.5-5.5h20.6
	c3.1,0,5.5,2.4,5.5,5.5S113.3,25.5,110.3,25.5z"/>
<image style="overflow:visible;" width="47" height="52" xlink:href="1CEEEF48.jpg"  transform="matrix(1 0 0 1 -86 75)">
</image>
</svg>
