<?xml version="1.0" standalone="no"?><!DOCTYPE svg PUBLIC "-//W3C//DTD SVG 1.1//EN" "http://www.w3.org/Graphics/SVG/1.1/DTD/svg11.dtd"><svg t="1560224700716" class="icon" style="" viewBox="0 0 1024 1024" version="1.1" xmlns="http://www.w3.org/2000/svg" p-id="8185" xmlns:xlink="http://www.w3.org/1999/xlink" width="200" height="200"><defs><style type="text/css"></style></defs><path d="M508.033665 952.196651c-59.736523 0-117.700679-11.704576-172.279738-34.790364-52.704362-22.292726-100.033297-54.200436-140.670833-94.837972s-72.54627-87.966471-94.837972-140.671856c-23.085788-54.580083-34.790364-112.543216-34.790364-172.279738s11.704576-117.699656 34.790364-172.279738c22.292726-52.705386 54.200436-100.033297 94.837972-140.671856 40.637536-40.637536 87.966471-72.545246 140.670833-94.837972 54.580083-23.085788 112.543216-34.791387 172.279738-34.791387s117.700679 11.704576 172.279738 34.791387c52.704362 22.292726 100.033297 54.200436 140.670833 94.837972s72.54627 87.966471 94.838995 140.671856c23.085788 54.580083 34.790364 112.543216 34.790364 172.279738s-11.704576 117.700679-34.790364 172.279738c-22.292726 52.705386-54.201459 100.034321-94.838995 140.671856s-87.966471 72.545246-140.670833 94.837972C625.733321 940.492074 567.770188 952.196651 508.033665 952.196651zM508.033665 118.202099c-215.826534 0-391.414621 175.588087-391.414621 391.414621s175.588087 391.414621 391.414621 391.414621 391.414621-175.588087 391.414621-391.414621S723.860199 118.202099 508.033665 118.202099z" p-id="8186"></path><path d="M689.00332 560.423873 539.230178 560.423873l0-67.041906 149.774165 0c14.46034 0 26.183336-11.722996 26.183336-26.183336 0-14.461363-11.722996-26.183336-26.183336-26.183336l-86.427418 0 66.146513-79.493495c5.967922-7.172353 7.650237-16.84669 5.294586-25.616424-1.373277-5.109368-4.115738-9.912767-8.179286-13.733792-11.040451-10.380418-27.647687-9.591449-37.09178 1.75804l-97.42796 117.086695-35.493375 0-97.42796-117.086695c-9.444093-11.349489-26.051329-12.138458-37.09178-1.75804-4.063549 3.822049-6.807033 8.624425-8.179286 13.733792-2.354628 8.769734-0.673335 18.444071 5.294586 25.616424l66.146513 79.493495-89.572038 0c-14.461363 0-26.183336 11.722996-26.183336 26.183336s11.722996 26.183336 26.183336 26.183336l151.865803 0 0 67.041906L334.99668 560.423873c-14.461363 0-26.183336 11.722996-26.183336 26.183336s11.722996 26.183336 26.183336 26.183336L486.862483 612.790544l0 121.323183c0 14.461363 11.722996 26.183336 26.183336 26.183336s26.183336-11.722996 26.183336-26.183336L539.229155 612.791567l149.774165 0c14.46034 0 26.183336-11.722996 26.183336-26.183336C715.187679 572.146868 703.46366 560.423873 689.00332 560.423873z" p-id="8187"></path></svg>