<?xml version="1.0" standalone="no"?><!DOCTYPE svg PUBLIC "-//W3C//DTD SVG 1.1//EN" "http://www.w3.org/Graphics/SVG/1.1/DTD/svg11.dtd"><svg t="1560224769680" class="icon" style="" viewBox="0 0 1024 1024" version="1.1" xmlns="http://www.w3.org/2000/svg" p-id="10512" xmlns:xlink="http://www.w3.org/1999/xlink" width="200" height="200"><defs><style type="text/css"></style></defs><path d="M737.081165 449.565825H286.620583a32.186408 32.186408 0 1 0 0 64.372816h450.460582a32.186408 32.186408 0 0 0 0-64.372816z" p-id="10513"></path><path d="M834.261748 0H189.738252A127.900583 127.900583 0 0 0 62.23534 127.60233v768.79534A127.652039 127.652039 0 0 0 189.738252 1024h644.523496a127.900583 127.900583 0 0 0 127.502912-127.60233V127.60233A127.652039 127.652039 0 0 0 834.261748 0z m-0.39767 981.84699H190.086214c-35.243495 0-84.504854-38.375146-84.504855-84.952233V117.511456c0-35.591456 49.012816-76.750291 84.504855-76.750291h394.488543v296.761165L673.752233 273.398058l89.177476 63.975146V40.761165h70.934369c35.243495 0 84.504854 36.983301 84.504854 72.624466v782.16699c-0.497087 47.223301-47.571262 91.36466-84.504854 86.294369z"  p-id="10514"></path><path d="M737.081165 642.634563H286.620583a32.186408 32.186408 0 1 0 0 64.372816h450.460582a32.186408 32.186408 0 0 0 0-64.372816z"  p-id="10515"></path></svg>