<?xml version="1.0" encoding="utf-8"?>
<!-- Generator: Adobe Illustrator 22.1.0, SVG Export Plug-In . SVG Version: 6.00 Build 0)  -->
<svg version="1.1" id="图层_1" xmlns="http://www.w3.org/2000/svg" xmlns:xlink="http://www.w3.org/1999/xlink" x="0px" y="0px"
	 viewBox="0 0 200 200" style="enable-background:new 0 0 200 200;" xml:space="preserve">
<style type="text/css">
	.st0{fill:#333333;}
</style>
<path class="st0" d="M30.8,169.2h153.8v15.4H15.4V15.4h15.4V169.2z M46.2,96.2h15.4v61.5H46.2C46.2,157.7,46.2,96.2,46.2,96.2z
	 M80.8,73.1h15.4v84.6H80.8C80.8,157.7,80.8,73.1,80.8,73.1z M115.4,96.2h15.4v61.5h-15.4C115.4,157.7,115.4,96.2,115.4,96.2z
	 M150,65.4h15.4v92.3H150V65.4z M58.1,67.9l-8.5-12.8l38.9-25.9l33.9,22.6L152.6,25l10.2,11.5l-39.1,34.7L88.5,47.7L58.1,67.9
	L58.1,67.9z"/>
</svg>
