<?xml version="1.0" standalone="no"?><!DOCTYPE svg PUBLIC "-//W3C//DTD SVG 1.1//EN" "http://www.w3.org/Graphics/SVG/1.1/DTD/svg11.dtd"><svg t="1560333088225" class="icon" style="" viewBox="0 0 1024 1024" version="1.1" xmlns="http://www.w3.org/2000/svg" p-id="17876" xmlns:xlink="http://www.w3.org/1999/xlink" width="200" height="200"><defs><style type="text/css"></style></defs><path d="M512 1024c-281.6 0-512-230.4-512-512s230.4-512 512-512 512 230.4 512 512-230.4 512-512 512z m0-967.68c-61.44 0-122.88 10.24-174.08 35.84-56.32 20.48-102.4 56.32-143.36 97.28-40.96 40.96-76.8 92.16-97.28 143.36-25.6 56.32-35.84 117.76-35.84 174.08 0 61.44 10.24 122.88 35.84 174.08 20.48 56.32 56.32 102.4 97.28 143.36 40.96 40.96 92.16 76.8 143.36 97.28 56.32 25.6 112.64 35.84 174.08 35.84 61.44 0 122.88-10.24 174.08-35.84 56.32-20.48 102.4-56.32 143.36-97.28 40.96-40.96 76.8-92.16 97.28-143.36 25.6-56.32 35.84-112.64 35.84-174.08 0-61.44-10.24-122.88-35.84-174.08-20.48-56.32-56.32-102.4-97.28-143.36-40.96-40.96-92.16-76.8-143.36-97.28-51.2-20.48-112.64-35.84-174.08-35.84z" p-id="17877" fill="#00f67b"></path><path d="M153.6 532.48l46.08-40.96 194.56 194.56 378.88-384 46.08 46.08-424.96 424.96z" p-id="17878" fill="#00f67b"></path></svg>